<svg width="363" height="1181" viewBox="0 0 363 1181" fill="none" xmlns="http://www.w3.org/2000/svg">
<g clip-path="url(#clip0_39_3)">
<rect x="-193" y="691" width="442" height="440" rx="217.5" fill="#534003"/>
<rect x="-202" y="685" width="460" height="452" rx="226" stroke="#ECE576" stroke-width="2"/>
<path d="M98.6588 981.659C100.095 983.095 100.095 985.423 98.6591 986.859L97.9028 987.616C96.3452 989.174 96.9416 991.823 99.0166 992.563L109.059 996.147C113.245 997.641 117.046 1000.05 120.189 1003.19L160.256 1043.26C163.398 1046.4 165.803 1050.2 167.297 1054.38L171.437 1065.98C172.083 1067.8 171.579 1069.83 170.134 1071.1C132.054 1104.64 82.0495 1125 27.5 1125C-27.0497 1125 -77.0546 1104.64 -115.135 1071.1C-116.58 1069.83 -117.084 1067.8 -116.437 1065.98L-112.297 1054.38C-110.803 1050.2 -108.398 1046.4 -105.256 1043.25L-63.4998 1001.5C-62.8589 1000.86 -62.0834 1000.37 -61.2295 1000.06L-43.0166 993.563C-40.9417 992.823 -40.3455 990.174 -41.9031 988.616L-43.2722 987.247C-44.9222 985.596 -44.9221 982.921 -43.272 981.271L6.28677 931.713C18.0025 919.997 36.9974 919.997 48.7131 931.713L98.6588 981.659ZM-123.119 1061.12C-123.119 1061.12 -123.119 1061.12 -123.119 1061.12L-119.263 1064.97C-119.263 1064.97 -119.263 1064.97 -119.263 1064.97C-119.263 1064.98 -119.263 1064.98 -119.263 1064.98L-123.12 1061.12C-123.12 1061.12 -123.12 1061.12 -123.119 1061.12ZM178.119 1061.12C178.119 1061.12 178.119 1061.12 178.119 1061.12L174.263 1064.98C174.263 1064.98 174.262 1064.98 174.262 1064.98C174.262 1064.97 174.262 1064.97 174.262 1064.97L178.118 1061.12C178.118 1061.12 178.118 1061.12 178.119 1061.12ZM-126.655 1057.58C-126.655 1057.58 -126.655 1057.58 -126.655 1057.58C-126.655 1057.58 -126.656 1057.58 -126.656 1057.58L-130.975 1053.26C-130.976 1053.26 -130.976 1053.26 -130.976 1053.26C-130.976 1053.26 -130.975 1053.26 -130.975 1053.26L-126.655 1057.58ZM185.975 1053.26C185.975 1053.26 185.975 1053.26 185.975 1053.26L181.655 1057.58C181.655 1057.58 181.654 1057.58 181.654 1057.58C181.654 1057.58 181.654 1057.58 181.654 1057.58L185.974 1053.26C185.974 1053.26 185.975 1053.26 185.975 1053.26ZM-128.983 766.563L-110.771 773.063C-109.917 773.368 -109.142 773.858 -108.502 774.498L-65.7442 817.256C-62.6018 820.398 -60.1968 824.2 -58.703 828.385L-54.5635 839.983C-53.8232 842.058 -51.1739 842.654 -49.6162 841.097L-48.5535 840.034C-47.0106 838.491 -44.509 838.491 -42.966 840.034L2.7505 885.751C14.4663 897.466 14.4662 916.461 2.75038 928.177L-47.0165 977.943C-48.5515 979.478 -51.0403 979.478 -52.5753 977.943L-53.6152 976.903C-55.1729 975.346 -57.8222 975.942 -58.5625 978.017L-62.6619 989.502C-64.1558 993.687 -66.5607 997.488 -69.703 1000.63L-111.698 1042.63C-112.283 1043.21 -112.991 1043.66 -113.771 1043.94L-131.983 1050.44C-133.668 1051.04 -135.551 1050.55 -136.713 1049.19C-168.662 1011.8 -188 963.384 -188 910.5C-188 855.593 -167.155 805.505 -132.993 767.564C-131.986 766.445 -130.401 766.057 -128.983 766.563ZM183.983 767.563C185.818 766.909 187.87 767.415 189.162 768.873C222.63 806.654 243 856.223 243 910.5C243 963.385 223.661 1011.8 191.711 1049.19C190.55 1050.55 188.667 1051.04 186.983 1050.44L168.771 1043.94C167.991 1043.66 167.282 1043.21 166.697 1042.63L124.095 1000.02C122.741 998.67 121.706 997.032 121.062 995.229L114.562 977.017C113.822 974.942 111.173 974.346 109.615 975.903L107.962 977.556C106.213 979.306 103.377 979.306 101.628 977.556L52.2482 928.177C40.5325 916.461 40.5325 897.466 52.2481 885.751L98.2709 839.727C99.9211 838.077 102.597 838.077 104.247 839.727L105.616 841.097C107.174 842.654 109.823 842.058 110.563 839.983L117.063 821.771C117.368 820.916 117.859 820.14 118.501 819.498L160.775 777.223C162.185 775.813 163.892 774.733 165.771 774.063L183.983 767.563ZM-48.381 986.381C-48.3809 986.381 -48.3808 986.381 -48.3808 986.381L-44.025 990.737C-44.0248 990.737 -44.0249 990.737 -44.0253 990.737C-44.0253 990.737 -44.0254 990.737 -44.0255 990.737L-48.3812 986.381C-48.3815 986.381 -48.3813 986.381 -48.381 986.381ZM-55.7374 979.024C-55.7374 979.024 -55.7373 979.024 -55.7372 979.025L-51.9176 982.844C-51.9174 982.844 -51.9175 982.845 -51.9178 982.845C-51.9179 982.845 -51.918 982.845 -51.9181 982.845L-55.7377 979.025C-55.7379 979.025 -55.7378 979.024 -55.7374 979.024ZM27.5 696C80.6629 696 129.509 715.341 167.208 747.37C168.548 748.508 169.028 750.36 168.438 752.017L164.894 761.945C163.4 766.131 160.995 769.932 157.853 773.074L117.63 813.297C114.487 816.439 110.686 818.844 106.501 820.338L95.0166 824.438C92.9418 825.178 92.3456 827.827 93.9033 829.385L94.9433 830.425C96.4783 831.96 96.4783 834.448 94.9433 835.983L48.7122 882.215C36.9965 893.931 18.0015 893.931 6.28568 882.215L-39.2509 836.679C-40.8932 835.036 -40.8931 832.374 -39.2507 830.732L-37.9035 829.385C-36.3458 827.827 -36.9418 825.178 -39.0166 824.438L-57.2295 817.938C-58.0108 817.658 -58.7203 817.209 -59.3069 816.623L-102.297 773.633C-105.439 770.491 -107.844 766.689 -109.338 762.503L-113.438 751.017C-113.865 749.821 -113.517 748.484 -112.551 747.66C-74.8061 715.458 -25.8239 696 27.5 696ZM-47.8813 835.119C-47.8811 835.119 -47.8811 835.119 -47.8813 835.12L-51.7368 838.975C-51.7371 838.975 -51.7375 838.975 -51.7378 838.975C-51.7381 838.975 -51.7381 838.974 -51.7378 838.974L-47.8823 835.119C-47.882 835.118 -47.8816 835.118 -47.8813 835.119ZM103.381 834.618C103.381 834.618 103.381 834.618 103.381 834.618L107.737 838.975C107.737 838.975 107.737 838.975 107.737 838.975C107.737 838.975 107.737 838.975 107.737 838.975L103.38 834.619C103.38 834.619 103.38 834.618 103.381 834.618ZM-40.0249 827.262C-40.0246 827.262 -40.0246 827.263 -40.0249 827.263L-44.3452 831.583C-44.3455 831.584 -44.3459 831.584 -44.3462 831.583C-44.3465 831.583 -44.3465 831.583 -44.3462 831.583L-40.0259 827.262C-40.0256 827.262 -40.0252 827.262 -40.0249 827.262ZM99.8446 831.082C99.8447 831.082 99.8447 831.082 99.8447 831.082C99.8447 831.082 99.8444 831.083 99.8441 831.082L96.0245 827.263C96.0244 827.263 96.0244 827.263 96.0244 827.263C96.0244 827.262 96.0248 827.262 96.025 827.262L99.8446 831.082ZM182.975 764.737C182.975 764.737 182.975 764.737 182.975 764.737C182.975 764.737 182.975 764.737 182.975 764.737L178.118 759.881C178.118 759.881 178.118 759.881 178.118 759.881C178.118 759.88 178.119 759.88 178.119 759.88L182.975 764.737ZM171.263 753.024C171.263 753.024 171.263 753.024 171.263 753.025L174.582 756.344C174.582 756.344 174.582 756.344 174.582 756.344C174.582 756.344 174.582 756.344 174.581 756.344L171.262 753.025C171.262 753.025 171.262 753.024 171.263 753.024Z" fill="#E0E25F"/>
<path d="M97.276 980.295C98.6984 981.717 98.6984 984.023 97.276 985.446L96.5568 986.165C94.9995 987.722 95.5957 990.371 97.6699 991.11L107.516 994.624C111.702 996.118 115.504 998.523 118.647 1001.67L157.611 1040.63C160.754 1043.77 163.159 1047.57 164.652 1051.76L168.713 1063.13C169.353 1064.93 168.854 1066.93 167.424 1068.19C130.059 1101.07 81.0069 1121.04 27.5 1121.04C-26.007 1121.04 -75.0595 1101.07 -112.425 1068.19C-113.854 1066.93 -114.353 1064.93 -113.713 1063.13L-109.653 1051.76C-108.16 1047.57 -105.754 1043.77 -102.612 1040.63L-61.987 1000C-61.3031 999.319 -60.4756 998.795 -59.5645 998.471L-41.6895 992.092C-39.6152 991.352 -39.0191 988.704 -40.5763 987.146L-41.8973 985.825C-43.53 984.193 -43.53 981.546 -41.8972 979.913L6.28583 931.73C18.0016 920.015 36.9964 920.015 48.7121 931.731L97.276 980.295ZM167.337 1050.36C167.337 1050.36 167.337 1050.36 167.337 1050.36L171.537 1062.12C171.537 1062.12 171.537 1062.12 171.537 1062.13C171.537 1062.13 171.537 1062.13 171.537 1062.13L167.336 1050.36C167.336 1050.36 167.337 1050.36 167.337 1050.36ZM-126.098 769.305L-108.223 775.685C-107.313 776.009 -106.488 776.531 -105.805 777.213L-64.1936 818.825C-61.0511 821.967 -58.646 825.769 -57.1522 829.955L-53.0928 841.329C-52.3525 843.403 -49.7037 843.999 -48.1466 842.442L-47.1278 841.423C-45.6005 839.895 -43.1239 839.895 -41.5964 841.422L2.75049 885.769C14.4663 897.485 14.4662 916.48 2.75037 928.196L-45.662 976.607C-47.1678 978.113 -49.6094 978.113 -51.1152 976.607L-52.0722 975.65C-53.6295 974.092 -56.2783 974.688 -57.0186 976.763L-60.9656 987.823C-62.4595 992.008 -64.8646 995.81 -68.0072 998.952L-109.298 1040.24C-109.826 1040.77 -110.464 1041.17 -111.167 1041.43L-129.042 1047.81C-130.708 1048.4 -132.571 1047.92 -133.719 1046.57C-165.043 1009.88 -184 962.391 -184 910.519C-184 856.661 -163.564 807.527 -130.069 770.297C-129.072 769.189 -127.502 768.804 -126.098 769.305ZM181.098 770.286C182.911 769.639 184.939 770.14 186.215 771.582C219.03 808.654 239 857.278 239 910.519C239 962.392 220.042 1009.88 188.718 1046.57C187.57 1047.92 185.707 1048.4 184.042 1047.81L166.167 1041.43C165.462 1041.17 164.821 1040.77 164.291 1040.24L122.252 998.199C120.969 996.916 119.987 995.365 119.378 993.656L112.999 975.781C112.259 973.707 109.611 973.111 108.053 974.668L106.494 976.227C104.778 977.943 101.996 977.943 100.28 976.227L52.2484 928.196C40.5326 916.48 40.5326 897.485 52.2484 885.769L96.8957 841.122C98.5282 839.489 101.175 839.489 102.807 841.122L104.128 842.442C105.685 843.999 108.333 843.403 109.073 841.329L115.452 823.454C115.777 822.544 116.3 821.717 116.983 821.033L158.126 779.89C159.565 778.451 161.306 777.35 163.223 776.666L181.098 770.286ZM27.5 700C79.6465 700 127.562 718.96 164.552 750.362C165.878 751.488 166.352 753.319 165.769 754.957L162.365 764.491C160.872 768.677 158.467 772.478 155.324 775.62L115.933 815.012C112.79 818.154 108.989 820.559 104.804 822.053L93.7441 826C91.6699 826.74 91.0738 829.388 92.631 830.945L93.5889 831.903C95.0947 833.409 95.0947 835.851 93.5889 837.356L48.7122 882.233C36.9965 893.949 18.0015 893.949 6.28581 882.233L-37.9093 838.038C-39.5202 836.427 -39.5202 833.815 -37.9093 832.204L-36.6505 830.945C-35.0933 829.388 -35.6894 826.74 -37.7637 826L-55.6387 819.621C-56.3428 819.37 -56.9822 818.965 -57.5109 818.436L-99.7803 776.167C-102.923 773.024 -105.329 769.222 -106.822 765.035L-110.769 753.976C-111.192 752.79 -110.847 751.465 -109.889 750.648C-72.8532 719.075 -24.8047 700 27.5 700Z" fill="#E4AE1A"/>
<rect x="-78.5" y="804.5" width="213" height="213" rx="106.5" fill="#34A42C" stroke="#534003" stroke-width="5"/>
<rect x="-71" y="812" width="198" height="198" rx="99" fill="#3FC335"/>
<path d="M28 1085L6.34937 1047.5H49.6506L28 1085Z" fill="#ECE576"/>
<path d="M28 727L49.6506 764.5H6.34937L28 727Z" fill="#ECE576"/>
<path d="M207 906L169.5 927.651V884.349L207 906Z" fill="#ECE576"/>
<path d="M138.38 565L134.7 550.4H137.3L139.5 559.92C139.62 560.387 139.733 560.887 139.84 561.42C139.947 561.953 140.027 562.387 140.08 562.72C140.133 562.387 140.207 561.953 140.3 561.42C140.393 560.887 140.493 560.38 140.6 559.9L142.78 550.4H145.3L141.62 565H138.38ZM151.992 565.2C151.059 565.2 150.246 565.027 149.552 564.68C148.872 564.32 148.346 563.82 147.972 563.18C147.612 562.527 147.432 561.76 147.432 560.88V554.52C147.432 553.64 147.612 552.88 147.972 552.24C148.346 551.587 148.872 551.087 149.552 550.74C150.246 550.38 151.059 550.2 151.992 550.2C152.939 550.2 153.752 550.38 154.432 550.74C155.112 551.087 155.632 551.587 155.992 552.24C156.366 552.88 156.552 553.633 156.552 554.5V560.88C156.552 561.76 156.366 562.527 155.992 563.18C155.632 563.82 155.112 564.32 154.432 564.68C153.752 565.027 152.939 565.2 151.992 565.2ZM151.992 563C152.672 563 153.186 562.82 153.532 562.46C153.879 562.087 154.052 561.56 154.052 560.88V554.52C154.052 553.827 153.879 553.3 153.532 552.94C153.186 552.58 152.672 552.4 151.992 552.4C151.312 552.4 150.799 552.58 150.452 552.94C150.106 553.3 149.932 553.827 149.932 554.52V560.88C149.932 561.56 150.106 562.087 150.452 562.46C150.812 562.82 151.326 563 151.992 563ZM160.044 565V550.4H162.544V562.68H168.744V565H160.044Z" fill="#4D311F"/>
<circle cx="206.456" cy="504.544" r="44.0439" fill="#E2C83C" stroke="#4D311F" stroke-width="3"/>
<circle cx="206.456" cy="504.544" r="39.1404" fill="#E4AE1A"/>
<rect x="190.29" y="499.438" width="32.3333" height="10.2105" fill="#ECE576"/>
<rect x="201.351" y="520.71" width="32.3333" height="10.2105" transform="rotate(-90 201.351 520.71)" fill="#ECE576"/>
<circle cx="97.5439" cy="504.544" r="44.0439" fill="#E2C83C" stroke="#4D311F" stroke-width="3"/>
<circle cx="97.5439" cy="504.544" r="39.1404" fill="#E4AE1A"/>
<rect x="81.3772" y="499.438" width="32.3333" height="10.2105" fill="#ECE576"/>
<circle cx="3" cy="241" r="10" fill="#423829" stroke="#C49410" stroke-width="2"/>
<circle cx="35" cy="241" r="10" fill="#423829" stroke="#C49410" stroke-width="2"/>
<circle cx="67" cy="241" r="10" fill="#423829" stroke="#C49410" stroke-width="2"/>
<circle cx="99" cy="241" r="10" fill="#423829" stroke="#C49410" stroke-width="2"/>
<circle cx="131" cy="241" r="10" fill="#423829" stroke="#C49410" stroke-width="2"/>
<circle cx="3" cy="270" r="10" fill="#423829" stroke="#C49410" stroke-width="2"/>
<circle cx="35" cy="270" r="10" fill="#423829" stroke="#C49410" stroke-width="2"/>
<circle cx="67" cy="270" r="10" fill="#423829" stroke="#C49410" stroke-width="2"/>
<circle cx="99" cy="270" r="10" fill="#423829" stroke="#C49410" stroke-width="2"/>
<circle cx="131" cy="270" r="10" fill="#423829" stroke="#C49410" stroke-width="2"/>
<circle cx="3" cy="299" r="10" fill="#423829" stroke="#C49410" stroke-width="2"/>
<circle cx="35" cy="299" r="10" fill="#423829" stroke="#C49410" stroke-width="2"/>
<circle cx="67" cy="299" r="10" fill="#423829" stroke="#C49410" stroke-width="2"/>
<circle cx="99" cy="299" r="10" fill="#423829" stroke="#C49410" stroke-width="2"/>
<circle cx="131" cy="299" r="10" fill="#423829" stroke="#C49410" stroke-width="2"/>
<circle cx="3" cy="328" r="10" fill="#423829" stroke="#C49410" stroke-width="2"/>
<circle cx="35" cy="328" r="10" fill="#423829" stroke="#C49410" stroke-width="2"/>
<circle cx="67" cy="328" r="10" fill="#423829" stroke="#C49410" stroke-width="2"/>
<circle cx="99" cy="328" r="10" fill="#423829" stroke="#C49410" stroke-width="2"/>
<circle cx="131" cy="328" r="10" fill="#423829" stroke="#C49410" stroke-width="2"/>
<circle cx="3" cy="357" r="10" fill="#423829" stroke="#C49410" stroke-width="2"/>
<circle cx="35" cy="357" r="10" fill="#423829" stroke="#C49410" stroke-width="2"/>
<circle cx="67" cy="357" r="10" fill="#423829" stroke="#C49410" stroke-width="2"/>
<circle cx="99" cy="357" r="10" fill="#423829" stroke="#C49410" stroke-width="2"/>
<circle cx="131" cy="357" r="10" fill="#423829" stroke="#C49410" stroke-width="2"/>
</g>
<defs>
<clipPath id="clip0_39_3">
<rect width="363" height="1181" fill="white"/>
</clipPath>
</defs>
</svg>
