<svg width="363" height="1181" viewBox="0 0 363 1181" fill="none" xmlns="http://www.w3.org/2000/svg">
<g clip-path="url(#clip0_39_72)">
<rect x="117" y="691" width="442" height="440" rx="217.5" fill="#534003"/>
<rect x="108" y="685" width="460" height="452" rx="226" stroke="#ECE576" stroke-width="2"/>
<path d="M408.659 981.659C410.095 983.095 410.095 985.423 408.659 986.859L407.903 987.616C406.345 989.174 406.942 991.823 409.017 992.563L419.059 996.147C423.245 997.641 427.046 1000.05 430.189 1003.19L470.256 1043.26C473.398 1046.4 475.803 1050.2 477.297 1054.38L481.437 1065.98C482.083 1067.8 481.579 1069.83 480.134 1071.1C442.054 1104.64 392.05 1125 337.5 1125C282.95 1125 232.945 1104.64 194.865 1071.1C193.42 1069.83 192.916 1067.8 193.563 1065.98L197.703 1054.38C199.197 1050.2 201.602 1046.4 204.744 1043.25L246.5 1001.5C247.141 1000.86 247.917 1000.37 248.771 1000.06L266.983 993.563C269.058 992.823 269.655 990.174 268.097 988.616L266.728 987.247C265.078 985.596 265.078 982.921 266.728 981.271L316.287 931.713C328.003 919.997 346.997 919.997 358.713 931.713L408.659 981.659ZM186.881 1061.12C186.881 1061.12 186.881 1061.12 186.881 1061.12L190.737 1064.97C190.737 1064.97 190.737 1064.97 190.737 1064.97C190.737 1064.98 190.737 1064.98 190.737 1064.98L186.88 1061.12C186.88 1061.12 186.88 1061.12 186.881 1061.12ZM488.119 1061.12C488.119 1061.12 488.119 1061.12 488.119 1061.12L484.263 1064.98C484.263 1064.98 484.262 1064.98 484.262 1064.98C484.262 1064.97 484.262 1064.97 484.262 1064.97L488.118 1061.12C488.118 1061.12 488.118 1061.12 488.119 1061.12ZM183.345 1057.58C183.345 1057.58 183.345 1057.58 183.345 1057.58C183.345 1057.58 183.344 1057.58 183.344 1057.58L179.025 1053.26C179.024 1053.26 179.024 1053.26 179.024 1053.26C179.024 1053.26 179.025 1053.26 179.025 1053.26L183.345 1057.58ZM495.975 1053.26C495.975 1053.26 495.975 1053.26 495.975 1053.26L491.655 1057.58C491.655 1057.58 491.654 1057.58 491.654 1057.58C491.654 1057.58 491.654 1057.58 491.654 1057.58L495.974 1053.26C495.974 1053.26 495.975 1053.26 495.975 1053.26ZM181.017 766.563L199.229 773.063C200.083 773.368 200.858 773.858 201.498 774.498L244.256 817.256C247.398 820.398 249.803 824.2 251.297 828.385L255.437 839.983C256.177 842.058 258.826 842.654 260.384 841.097L261.446 840.034C262.989 838.491 265.491 838.491 267.034 840.034L312.751 885.751C324.466 897.466 324.466 916.461 312.75 928.177L262.984 977.943C261.448 979.478 258.96 979.478 257.425 977.943L256.385 976.903C254.827 975.346 252.178 975.942 251.438 978.017L247.338 989.502C245.844 993.687 243.439 997.488 240.297 1000.63L198.302 1042.63C197.717 1043.21 197.009 1043.66 196.229 1043.94L178.017 1050.44C176.332 1051.04 174.449 1050.55 173.287 1049.19C141.338 1011.8 122 963.384 122 910.5C122 855.593 142.845 805.505 177.007 767.564C178.014 766.445 179.599 766.057 181.017 766.563ZM493.983 767.563C495.818 766.909 497.87 767.415 499.162 768.873C532.63 806.654 553 856.223 553 910.5C553 963.385 533.661 1011.8 501.711 1049.19C500.55 1050.55 498.667 1051.04 496.983 1050.44L478.771 1043.94C477.991 1043.66 477.282 1043.21 476.697 1042.63L434.095 1000.02C432.741 998.67 431.706 997.032 431.062 995.229L424.562 977.017C423.822 974.942 421.173 974.346 419.615 975.903L417.962 977.556C416.213 979.306 413.377 979.306 411.628 977.556L362.248 928.177C350.533 916.461 350.532 897.466 362.248 885.751L408.271 839.727C409.921 838.077 412.597 838.077 414.247 839.727L415.616 841.097C417.174 842.654 419.823 842.058 420.563 839.983L427.063 821.771C427.368 820.916 427.859 820.14 428.501 819.498L470.775 777.223C472.185 775.813 473.892 774.733 475.771 774.063L493.983 767.563ZM261.619 986.381C261.619 986.381 261.619 986.381 261.619 986.381L265.975 990.737C265.975 990.737 265.975 990.737 265.975 990.737C265.975 990.737 265.975 990.737 265.975 990.737L261.619 986.381C261.619 986.381 261.619 986.381 261.619 986.381ZM254.263 979.024C254.263 979.024 254.263 979.024 254.263 979.025L258.082 982.844C258.083 982.844 258.082 982.845 258.082 982.845C258.082 982.845 258.082 982.845 258.082 982.845L254.262 979.025C254.262 979.025 254.262 979.024 254.263 979.024ZM337.5 696C390.663 696 439.509 715.341 477.208 747.37C478.548 748.508 479.028 750.36 478.438 752.017L474.894 761.945C473.4 766.131 470.995 769.932 467.853 773.074L427.63 813.297C424.487 816.439 420.686 818.844 416.501 820.338L405.017 824.438C402.942 825.178 402.346 827.827 403.903 829.385L404.943 830.425C406.478 831.96 406.478 834.448 404.943 835.983L358.712 882.215C346.996 893.931 328.001 893.931 316.286 882.215L270.749 836.679C269.107 835.036 269.107 832.374 270.749 830.732L272.096 829.385C273.654 827.827 273.058 825.178 270.983 824.438L252.771 817.938C251.989 817.658 251.28 817.209 250.693 816.623L207.703 773.633C204.561 770.491 202.156 766.689 200.662 762.503L196.562 751.017C196.135 749.821 196.483 748.484 197.449 747.66C235.194 715.458 284.176 696 337.5 696ZM262.119 835.119C262.119 835.119 262.119 835.119 262.119 835.12L258.263 838.975C258.263 838.975 258.262 838.975 258.262 838.975C258.262 838.975 258.262 838.974 258.262 838.974L262.118 835.119C262.118 835.118 262.118 835.118 262.119 835.119ZM413.381 834.618C413.381 834.618 413.381 834.618 413.381 834.618L417.737 838.975C417.737 838.975 417.737 838.975 417.737 838.975C417.737 838.975 417.737 838.975 417.737 838.975L413.38 834.619C413.38 834.619 413.38 834.618 413.381 834.618ZM269.975 827.262C269.975 827.262 269.975 827.263 269.975 827.263L265.655 831.583C265.655 831.584 265.654 831.584 265.654 831.583C265.654 831.583 265.654 831.583 265.654 831.583L269.974 827.262C269.974 827.262 269.975 827.262 269.975 827.262ZM409.845 831.082C409.845 831.082 409.845 831.082 409.845 831.082C409.845 831.082 409.844 831.083 409.844 831.082L406.025 827.263C406.024 827.263 406.024 827.263 406.024 827.263C406.024 827.262 406.025 827.262 406.025 827.262L409.845 831.082ZM492.975 764.737C492.975 764.737 492.975 764.737 492.975 764.737C492.975 764.737 492.975 764.737 492.975 764.737L488.118 759.881C488.118 759.881 488.118 759.881 488.118 759.881C488.118 759.88 488.119 759.88 488.119 759.88L492.975 764.737ZM481.263 753.024C481.263 753.024 481.263 753.024 481.263 753.025L484.582 756.344C484.582 756.344 484.582 756.344 484.582 756.344C484.582 756.344 484.582 756.344 484.581 756.344L481.262 753.025C481.262 753.025 481.262 753.024 481.263 753.024Z" fill="#E0E25F"/>
<path d="M407.276 980.295C408.698 981.717 408.698 984.023 407.276 985.446L406.557 986.165C405 987.722 405.596 990.371 407.67 991.11L417.516 994.624C421.702 996.118 425.504 998.523 428.647 1001.67L467.611 1040.63C470.754 1043.77 473.159 1047.57 474.652 1051.76L478.713 1063.13C479.353 1064.93 478.854 1066.93 477.424 1068.19C440.059 1101.07 391.007 1121.04 337.5 1121.04C283.993 1121.04 234.941 1101.07 197.575 1068.19C196.146 1066.93 195.647 1064.93 196.287 1063.13L200.347 1051.76C201.84 1047.57 204.246 1043.77 207.388 1040.63L248.013 1000C248.697 999.319 249.524 998.795 250.436 998.471L268.311 992.092C270.385 991.352 270.981 988.704 269.424 987.146L268.103 985.825C266.47 984.193 266.47 981.546 268.103 979.913L316.286 931.73C328.002 920.015 346.996 920.015 358.712 931.731L407.276 980.295ZM477.337 1050.36C477.337 1050.36 477.337 1050.36 477.337 1050.36L481.537 1062.12C481.537 1062.12 481.537 1062.12 481.537 1062.13C481.537 1062.13 481.537 1062.13 481.537 1062.13L477.336 1050.36C477.336 1050.36 477.337 1050.36 477.337 1050.36ZM183.902 769.305L201.777 775.685C202.687 776.009 203.512 776.531 204.195 777.213L245.806 818.825C248.949 821.967 251.354 825.769 252.848 829.955L256.907 841.329C257.647 843.403 260.296 843.999 261.853 842.442L262.872 841.423C264.399 839.895 266.876 839.895 268.404 841.422L312.75 885.769C324.466 897.485 324.466 916.48 312.75 928.196L264.338 976.607C262.832 978.113 260.391 978.113 258.885 976.607L257.928 975.65C256.371 974.092 253.722 974.688 252.981 976.763L249.034 987.823C247.541 992.008 245.135 995.81 241.993 998.952L200.702 1040.24C200.174 1040.77 199.536 1041.17 198.833 1041.43L180.958 1047.81C179.292 1048.4 177.429 1047.92 176.281 1046.57C144.957 1009.88 126 962.391 126 910.519C126 856.661 146.436 807.527 179.931 770.297C180.928 769.189 182.498 768.804 183.902 769.305ZM491.098 770.286C492.911 769.639 494.939 770.14 496.215 771.582C529.03 808.654 549 857.278 549 910.519C549 962.392 530.042 1009.88 498.718 1046.57C497.57 1047.92 495.707 1048.4 494.042 1047.81L476.167 1041.43C475.462 1041.17 474.821 1040.77 474.291 1040.24L432.252 998.199C430.969 996.916 429.987 995.365 429.378 993.656L422.999 975.781C422.259 973.707 419.611 973.111 418.053 974.668L416.494 976.227C414.778 977.943 411.996 977.943 410.28 976.227L362.248 928.196C350.533 916.48 350.533 897.485 362.248 885.769L406.896 841.122C408.528 839.489 411.175 839.489 412.807 841.122L414.128 842.442C415.685 843.999 418.333 843.403 419.073 841.329L425.452 823.454C425.777 822.544 426.3 821.717 426.983 821.033L468.126 779.89C469.565 778.451 471.306 777.35 473.223 776.666L491.098 770.286ZM337.5 700C389.646 700 437.562 718.96 474.552 750.362C475.878 751.488 476.352 753.319 475.769 754.957L472.365 764.491C470.872 768.677 468.467 772.478 465.324 775.62L425.933 815.012C422.79 818.154 418.989 820.559 414.804 822.053L403.744 826C401.67 826.74 401.074 829.388 402.631 830.945L403.589 831.903C405.095 833.409 405.095 835.851 403.589 837.356L358.712 882.233C346.997 893.949 328.002 893.949 316.286 882.233L272.091 838.038C270.48 836.427 270.48 833.815 272.091 832.204L273.35 830.945C274.907 829.388 274.311 826.74 272.236 826L254.361 819.621C253.657 819.37 253.018 818.965 252.489 818.436L210.22 776.167C207.077 773.024 204.671 769.222 203.178 765.035L199.231 753.976C198.808 752.79 199.153 751.465 200.111 750.648C237.147 719.075 285.195 700 337.5 700Z" fill="#E4AE1A"/>
<rect x="231.5" y="804.5" width="213" height="213" rx="106.5" fill="#34A42C" stroke="#534003" stroke-width="5"/>
<rect x="239" y="812" width="198" height="198" rx="99" fill="#3FC335"/>
<path d="M338 1085L316.349 1047.5H359.651L338 1085Z" fill="#ECE576"/>
<path d="M338 727L359.651 764.5H316.349L338 727Z" fill="#ECE576"/>
<path d="M159 906L196.5 884.349V927.651L159 906Z" fill="#ECE576"/>
<circle cx="126" cy="505" r="51.5" fill="#E2C83C" stroke="#4D311F" stroke-width="3"/>
<circle cx="126" cy="505" r="46" fill="#E4AE1A"/>
<path d="M97.54 584V569.4H102.4C103.373 569.4 104.22 569.587 104.94 569.96C105.673 570.333 106.24 570.86 106.64 571.54C107.04 572.207 107.24 572.993 107.24 573.9C107.24 574.793 107.033 575.58 106.62 576.26C106.22 576.94 105.66 577.467 104.94 577.84C104.22 578.213 103.373 578.4 102.4 578.4H100.04V584H97.54ZM100.04 576.14H102.4C103.093 576.14 103.647 575.94 104.06 575.54C104.487 575.127 104.7 574.58 104.7 573.9C104.7 573.207 104.487 572.66 104.06 572.26C103.647 571.86 103.093 571.66 102.4 571.66H100.04V576.14ZM113.992 584.2C113.059 584.2 112.246 584.027 111.552 583.68C110.872 583.32 110.346 582.82 109.972 582.18C109.612 581.527 109.432 580.76 109.432 579.88V573.52C109.432 572.64 109.612 571.88 109.972 571.24C110.346 570.587 110.872 570.087 111.552 569.74C112.246 569.38 113.059 569.2 113.992 569.2C114.939 569.2 115.752 569.38 116.432 569.74C117.112 570.087 117.632 570.587 117.992 571.24C118.366 571.88 118.552 572.633 118.552 573.5V579.88C118.552 580.76 118.366 581.527 117.992 582.18C117.632 582.82 117.112 583.32 116.432 583.68C115.752 584.027 114.939 584.2 113.992 584.2ZM113.992 582C114.672 582 115.186 581.82 115.532 581.46C115.879 581.087 116.052 580.56 116.052 579.88V573.52C116.052 572.827 115.879 572.3 115.532 571.94C115.186 571.58 114.672 571.4 113.992 571.4C113.312 571.4 112.799 571.58 112.452 571.94C112.106 572.3 111.932 572.827 111.932 573.52V579.88C111.932 580.56 112.106 581.087 112.452 581.46C112.812 581.82 113.326 582 113.992 582ZM121.804 584L120.304 569.4H122.464L123.344 579.6C123.371 579.827 123.391 580.107 123.404 580.44C123.431 580.76 123.451 581.087 123.464 581.42C123.491 581.753 123.504 582.047 123.504 582.3C123.531 582.047 123.558 581.753 123.584 581.42C123.611 581.087 123.638 580.76 123.664 580.44C123.704 580.107 123.738 579.827 123.764 579.6L124.964 569.4H127.064L128.184 579.6C128.224 579.827 128.258 580.107 128.284 580.44C128.324 580.76 128.364 581.087 128.404 581.42C128.444 581.753 128.478 582.047 128.504 582.3C128.518 582.047 128.531 581.753 128.544 581.42C128.558 581.087 128.571 580.76 128.584 580.44C128.611 580.107 128.638 579.827 128.664 579.6L129.524 569.4H131.664L130.084 584H127.324L126.244 573.76C126.218 573.507 126.184 573.213 126.144 572.88C126.118 572.533 126.091 572.193 126.064 571.86C126.038 571.513 126.018 571.22 126.004 570.98C125.991 571.22 125.964 571.513 125.924 571.86C125.898 572.193 125.871 572.533 125.844 572.88C125.818 573.213 125.791 573.507 125.764 573.76L124.584 584H121.804ZM133.737 584V569.4H142.497V571.58H136.197V575.38H141.797V577.54H136.197V581.82H142.497V584H133.737ZM145.489 584V569.4H150.109C151.082 569.4 151.922 569.58 152.629 569.94C153.349 570.3 153.909 570.807 154.309 571.46C154.709 572.1 154.909 572.86 154.909 573.74C154.909 574.7 154.662 575.547 154.169 576.28C153.689 577.013 153.035 577.533 152.209 577.84L155.109 584H152.309L149.769 578.2H147.989V584H145.489ZM147.989 576H150.109C150.815 576 151.369 575.807 151.769 575.42C152.169 575.033 152.369 574.5 152.369 573.82C152.369 573.127 152.169 572.587 151.769 572.2C151.369 571.8 150.815 571.6 150.109 571.6H147.989V576Z" fill="#4D311F"/>
<circle cx="227" cy="241" r="10" fill="#423829" stroke="#C49410" stroke-width="2"/>
<circle cx="259" cy="241" r="10" fill="#423829" stroke="#C49410" stroke-width="2"/>
<circle cx="291" cy="241" r="10" fill="#423829" stroke="#C49410" stroke-width="2"/>
<circle cx="323" cy="241" r="10" fill="#423829" stroke="#C49410" stroke-width="2"/>
<circle cx="355" cy="241" r="10" fill="#423829" stroke="#C49410" stroke-width="2"/>
<circle cx="227" cy="270" r="10" fill="#423829" stroke="#C49410" stroke-width="2"/>
<circle cx="259" cy="270" r="10" fill="#423829" stroke="#C49410" stroke-width="2"/>
<circle cx="291" cy="270" r="10" fill="#423829" stroke="#C49410" stroke-width="2"/>
<circle cx="323" cy="270" r="10" fill="#423829" stroke="#C49410" stroke-width="2"/>
<circle cx="355" cy="270" r="10" fill="#423829" stroke="#C49410" stroke-width="2"/>
<circle cx="227" cy="299" r="10" fill="#423829" stroke="#C49410" stroke-width="2"/>
<circle cx="259" cy="299" r="10" fill="#423829" stroke="#C49410" stroke-width="2"/>
<circle cx="291" cy="299" r="10" fill="#423829" stroke="#C49410" stroke-width="2"/>
<circle cx="323" cy="299" r="10" fill="#423829" stroke="#C49410" stroke-width="2"/>
<circle cx="355" cy="299" r="10" fill="#423829" stroke="#C49410" stroke-width="2"/>
<circle cx="227" cy="328" r="10" fill="#423829" stroke="#C49410" stroke-width="2"/>
<circle cx="259" cy="328" r="10" fill="#423829" stroke="#C49410" stroke-width="2"/>
<circle cx="291" cy="328" r="10" fill="#423829" stroke="#C49410" stroke-width="2"/>
<circle cx="323" cy="328" r="10" fill="#423829" stroke="#C49410" stroke-width="2"/>
<circle cx="355" cy="328" r="10" fill="#423829" stroke="#C49410" stroke-width="2"/>
<circle cx="227" cy="357" r="10" fill="#423829" stroke="#C49410" stroke-width="2"/>
<circle cx="259" cy="357" r="10" fill="#423829" stroke="#C49410" stroke-width="2"/>
<circle cx="291" cy="357" r="10" fill="#423829" stroke="#C49410" stroke-width="2"/>
<circle cx="323" cy="357" r="10" fill="#423829" stroke="#C49410" stroke-width="2"/>
<circle cx="355" cy="357" r="10" fill="#423829" stroke="#C49410" stroke-width="2"/>
</g>
<defs>
<clipPath id="clip0_39_72">
<rect width="363" height="1181" fill="white"/>
</clipPath>
</defs>
</svg>
